<svg width="32" height="32" viewBox="0 0 32 32" fill="none" xmlns="http://www.w3.org/2000/svg">
  <g clip-path="url(#clip0)"><path d="M28.18 17.6c5.06-2.7 2.25-7.56 2.25-10.8.05-1.65.37-3.28.97-4.81A1.1 1.1 0 0030.17.55C27.99.88 24.59 1.6 23.1 3a18.7 18.7 0 00-3.38 4.33h-7.46a18.7 18.7 0 00-3.38-4.32C7.42 1.6 4.01.88 1.83.55A1.1 1.1 0 00.6 2c.6 1.53.93 3.16.97 4.8 0 3.25-2.81 8.11 2.25 10.81h24.36z" fill="#795548"/><path d="M31.4 1.98c-.6 1.54-.93 3.17-.97 4.81 0 3.25 2.81 8.1-2.25 10.8h-1.6c5.06-2.7 2.25-7.55 2.25-10.8.04-1.64.37-3.27.97-4.8a1.07 1.07 0 00-.48-1.3l.85-.14a1.1 1.1 0 011.23 1.43z" fill="#4E342E"/><path d="M27.34 16.1c1.9-1.13 1.84-2.58 1.24-5.69a16.7 16.7 0 01-.4-3.08c.01-1.28.2-2.55.54-3.79-2.26.48-3.54 1.08-4.02 1.54a17.29 17.29 0 00-2.93 3.7H10.23a17.29 17.29 0 00-2.93-3.7c-.48-.46-1.76-1.06-4.02-1.54.34 1.24.53 2.5.54 3.79a16.71 16.71 0 01-.4 3.08c-.6 3.11-.66 4.56 1.24 5.69h22.68z" fill="#ED4B4B"/><path d="M28.32 24.09a6.6 6.6 0 01-2.92 2.9c-.26.14-.56.28-.87.4l-5.86 1.8c-.8.48-1.73.72-2.67.68-.26 0-.53-.02-.79-.05h-.02a4.15 4.15 0 01-1.86-.62l-5.86-1.8c-.31-.13-.6-.27-.86-.41a6.6 6.6 0 01-2.93-2.9c-.94-1.98-.3-4.42.29-6.42.64-2.1 1.57-4.1 2.77-5.92 1.51-2.3 3.84-4.17 6.56-4.49a6.9 6.9 0 012.7.2c.36-.09.73-.16 1.1-.2 3.4-.38 6.36 1.74 8.16 4.49a22.84 22.84 0 012.77 5.92c.6 2 1.24 4.44.3 6.42z" fill="#C46F2A"/><path d="M26.72 24.09a6.6 6.6 0 01-2.92 2.9c-.26.14-.56.28-.87.4l-5.86 1.8c-.56.36-1.2.57-1.86.63h-.02a4.15 4.15 0 01-1.86-.62l-5.86-1.8c-.31-.13-.6-.27-.86-.41a6.6 6.6 0 01-2.93-2.9c-.94-1.98-.3-4.42.29-6.42.64-2.1 1.57-4.1 2.77-5.92 1.51-2.3 3.84-4.17 6.56-4.49.37.04.74.11 1.1.2a7.7 7.7 0 012.7-.2c2.72.32 5.05 2.18 6.56 4.49a22.83 22.83 0 012.77 5.92c.6 2 1.24 4.44.3 6.42z" fill="#EE8A38"/><path d="M18.23 21.62c1.02-.05 1.97.59 2.78 1.16a12.4 12.4 0 012.92 2.98c.52.6.7 1.4.5 2.16-.47 1.21-2.16 1.73-3.37 1.9-.94.2-1.9-.1-2.56-.8-.38-.45-.57-1.01-.93-1.47l-.02-.01a2.03 2.03 0 00-3.1 0l-.02.01c-.36.46-.55 1.02-.93 1.47-.65.7-1.62 1-2.55.8-1.22-.17-2.9-.69-3.37-1.9a2.29 2.29 0 01.5-2.16 12.4 12.4 0 012.9-2.98c.82-.57 1.77-1.2 2.8-1.16" fill="#EE8A38"/><path d="M24.42 27.92c-.46 1.21-2.15 1.73-3.36 1.9-.43.07-.86.05-1.28-.05 1.17-.2 2.62-.74 3.04-1.85.22-.76.03-1.57-.49-2.16a12.4 12.4 0 00-2.92-2.98c-.78-.56-1.7-1.16-2.68-1.16h1.5c1.02-.05 1.97.59 2.78 1.16a12.4 12.4 0 012.92 2.98c.52.6.7 1.4.5 2.16z" fill="#C46F2A"/><path d="M18.67 20.44a2.95 2.95 0 01-2.67 2.5 2.95 2.95 0 01-2.66-2.5 1 1 0 01.05-.32c.25-.67 1.32-.92 2.61-.92 1.47 0 2.67.33 2.67 1.24z" fill="#1A1A1A"/><path d="M13.34 26.9v1.9a2.67 2.67 0 005.33 0v-1.9" fill="#ED4B4B"/><path d="M9.8 26.71a.51.51 0 00-.4 0 .43.43 0 00-.1.05l-.08.06c-.2.21-.2.55 0 .76l.08.06a.4.4 0 00.1.05c.03.02.06.03.1.03a.53.53 0 00.3-1.01zM22.7 26.76a.43.43 0 00-.1-.05.51.51 0 00-.4 0 .53.53 0 00.3 1.01c.04 0 .07-.01.1-.03a.42.42 0 00.1-.05l.08-.06c.2-.21.2-.55 0-.76l-.08-.06z" fill="#000"/><path d="M31.64.61a1.66 1.66 0 00-1.55-.59c-2.5.38-5.81 1.14-7.35 2.6a19.75 19.75 0 00-3.34 4.22 7.6 7.6 0 00-3.4.08 7.62 7.62 0 00-3.4-.08 19.74 19.74 0 00-3.34-4.21C7.73 1.16 4.42.4 1.91.03 1.33-.08.74.14.36.6A1.58 1.58 0 00.1 2.17c.58 1.48.9 3.04.94 4.62C1 7.67.88 8.53.69 9.38c-.55 2.83-1.22 6.33 2.65 8.55-.6 2.08-1.08 4.4-.14 6.38a7.12 7.12 0 003.78 3.45l.1.35c.62 1.62 2.86 2.11 3.8 2.25a3.42 3.42 0 002.18-.34 3.19 3.19 0 005.9 0 3.43 3.43 0 002.17.34c.94-.14 3.17-.63 3.79-2.25.04-.11.08-.23.1-.35l.63-.3a7.11 7.11 0 003.15-3.15c.95-1.97.47-4.3-.14-6.38 3.87-2.22 3.2-5.72 2.65-8.55-.2-.85-.3-1.71-.35-2.59.05-1.58.37-3.14.94-4.62.2-.53.1-1.12-.26-1.56zM1.74 9.58c.2-.91.33-1.85.37-2.79-.05-1.7-.39-3.4-1-4.99a.52.52 0 01.08-.52.6.6 0 01.56-.2c3.33.5 5.73 1.32 6.77 2.31a19.13 19.13 0 013.01 3.74c-.37.13-.72.28-1.07.46a17.93 17.93 0 00-2.8-3.43c-.64-.63-2.2-1.24-4.27-1.68a.53.53 0 00-.63.67c.34 1.19.52 2.41.53 3.65-.04 1-.17 2-.39 2.98-.55 2.83-.78 4.68 1.15 6.03-.14.35-.27.72-.39 1.08-2.97-1.85-2.45-4.62-1.93-7.3zm2.74 5.21c-1.09-.86-1.07-2-.53-4.8.24-1.06.37-2.12.4-3.2 0-1.03-.12-2.06-.35-3.07 1.66.42 2.6.89 2.93 1.2 1 .97 1.88 2.04 2.61 3.22-1.29.88-2.4 2-3.24 3.31a24.1 24.1 0 00-1.82 3.34zM16 30.93a2.14 2.14 0 01-2.13-2.13v-1.24c.53.1 1.06.15 1.6.16v.55a.53.53 0 101.06 0v-.55c.54-.02 1.08-.07 1.6-.16v1.24A2.14 2.14 0 0116 30.93zm4.98-1.63a2.39 2.39 0 01-1.79-.39l.01-.11v-1.53c1.54-.58 1.6-1.52 1.6-1.67 0-.3-.23-.54-.53-.55a.52.52 0 00-.54.52c-.02.19-.33.57-1.27.83-.8.2-1.63.29-2.46.27-2.92 0-3.68-.79-3.73-1.1a.53.53 0 10-1.07.03c0 .15.07 1.1 1.6 1.67v1.53l.01.11c-.52.37-1.16.5-1.79.4-.58-.1-2.51-.46-2.94-1.58-.18-.47-.04-1 .43-1.65.76-1.1 1.7-2.07 2.78-2.86.65-.53 1.42-.9 2.24-1.06a3.5 3.5 0 001.94 1.25v1.66a.53.53 0 101.06 0V23.4a3.5 3.5 0 001.95-1.25c.82.16 1.58.52 2.23 1.05 1.08.8 2.03 1.76 2.79 2.86.47.67.6 1.2.42 1.66-.42 1.12-2.36 1.49-2.94 1.57zM16 22.4a2.45 2.45 0 01-2.13-1.96c0-.04 0-.08.02-.13.1-.26.71-.58 2.11-.58.99 0 2.13.19 2.13.71A2.45 2.45 0 0116 22.4zm11.84 1.46a6.05 6.05 0 01-2.69 2.66l-.2.1c-.13-.42-.32-.81-.58-1.16a12.82 12.82 0 00-3.05-3.12 6.82 6.82 0 00-2.27-1.17c.1-.23.15-.48.15-.73 0-.66-.41-1.77-3.2-1.77-1.75 0-2.8.42-3.12 1.28-.05.16-.08.33-.08.5 0 .24.06.49.15.72a6.8 6.8 0 00-2.27 1.17 12.82 12.82 0 00-3.04 3.12 4 4 0 00-.6 1.15l-.19-.1a6.05 6.05 0 01-2.69-2.65c-.84-1.77-.28-4.05.32-6.04.62-2.05 1.53-4 2.71-5.78a9.62 9.62 0 014.96-3.98c.1 0 .2-.03.27-.09 1.13-.3 2.32-.3 3.44.01h.28c1.12-.3 2.3-.31 3.43-.01.08.06.18.09.28.09h.01a9.63 9.63 0 014.95 3.98 22.26 22.26 0 012.71 5.78c.6 2 1.16 4.27.32 6.04zm.21-13.88c.55 2.8.56 3.95-.52 4.81a24.17 24.17 0 00-1.82-3.34 11.76 11.76 0 00-3.25-3.31 16.85 16.85 0 012.62-3.21c.33-.32 1.27-.79 2.92-1.2-.23 1-.34 2.03-.35 3.06.03 1.08.17 2.14.4 3.2zM30.9 1.8c-.62 1.6-.96 3.28-1 5 .03.93.16 1.87.37 2.78.52 2.69 1.05 5.46-1.93 7.3a22.2 22.2 0 00-.39-1.08c1.94-1.34 1.7-3.2 1.15-6.02-.22-.98-.35-1.98-.39-2.99.02-1.23.2-2.46.53-3.64a.53.53 0 00-.63-.66c-2.07.44-3.63 1.05-4.27 1.67-1.07 1.02-2.01 2.18-2.8 3.44-.34-.18-.7-.34-1.07-.47a19.15 19.15 0 013.01-3.73c1.04-1 3.44-1.82 6.77-2.32.21-.04.42.04.56.2.12.15.16.35.09.52z" fill="#000"/><path d="M13.57 10.22l-1.6 1.07a.53.53 0 00.6.89l1.6-1.07a.53.53 0 00-.6-.89zM20.18 12.03a.53.53 0 00-.15-.74l-1.6-1.07a.53.53 0 10-.6.89l1.6 1.07a.53.53 0 00.75-.15zM9.87 14.93a2.4 2.4 0 00-2.4 2.4.53.53 0 001.07 0 1.33 1.33 0 112.66 0 .53.53 0 001.07 0 2.4 2.4 0 00-2.4-2.4zM22.13 14.93a2.4 2.4 0 00-2.4 2.4.53.53 0 001.07 0 1.33 1.33 0 112.67 0 .53.53 0 001.06 0 2.4 2.4 0 00-2.4-2.4z" fill="#000"/></g><defs><clipPath id="clip0"><path fill="#fff" d="M0 0h32v32H0z"/></clipPath></defs>
</svg>
